<svg width="173" height="38" viewBox="0 0 173 38" fill="none" xmlns="http://www.w3.org/2000/svg">
<path d="M28.2103 7.60348C28.7625 7.55477 28.9059 6.81599 28.4133 6.56161L17.3368 1.0032C17.1771 0.916603 16.9985 0.865187 16.8171 0.851657C13.3848 0.597279 9.80635 1.5769 6.97498 3.50638C4.21399 5.38715 2.02415 8.22859 1.10652 11.4354C1.04697 11.641 1.14442 11.8629 1.3339 11.9631L13.9749 18.7501C15.9076 10.0958 24.2041 7.9634 28.2103 7.60348Z" fill="#F16A46"/>
<path d="M33.5185 20.2873C33.4643 18.3199 33.0042 16.22 31.5885 14.8534C30.4597 13.7628 28.814 13.3325 27.2467 13.3975C23.43 13.5517 19.949 16.6962 19.4131 20.4767C17.4858 20.7852 13.9615 21.3075 13.9615 21.3075L5.32118 16.8451C0.827806 18.7475 -1.08323 24.9851 0.611258 29.6857L13.7828 37.9151C14.2321 38.1965 14.7925 37.7311 14.5813 37.244C13.4878 34.7273 13.3578 31.7722 14.1482 29.1688C15.4205 24.9797 18.7932 23.0827 22.7777 21.8974C25.2788 21.1533 27.3387 20.861 29.9075 20.6039V25.41C28.0696 25.7023 26.6972 25.9891 24.8593 26.4438C22.821 26.9471 20.8017 27.9836 19.7054 29.775C18.6091 31.5638 18.7553 34.2023 20.4254 35.4714C21.113 35.9937 21.9765 36.2427 22.8345 36.332C26.4888 36.7081 30.0158 34.2483 31.7726 31.0198C33.5293 27.7887 33.6024 23.3073 33.5185 20.2873Z" fill="#F16A46"/>
<path d="M49.5755 16.6934L48.5578 13.6733C49.1262 13.3026 50.0059 12.9725 51.1997 12.6883C52.3934 12.4042 53.3597 12.2607 54.1041 12.2607C55.3303 12.2607 56.451 12.5124 57.4687 13.0158C58.4865 13.5191 59.2904 14.2037 59.8805 15.067C60.4706 15.9303 60.7657 16.8991 60.7657 17.9707V28.6058H58.3024L57.7448 26.9984C57.1331 27.5883 56.432 28.07 55.6443 28.4435C54.8566 28.8142 54.0689 29.0009 53.2812 29.0009C51.4433 29.0009 50.0465 28.5409 49.0964 27.6235C48.1436 26.7034 47.6699 25.4802 47.6699 23.9486C47.6699 22.3519 48.2113 21.1152 49.294 20.2411C50.3768 19.3671 51.806 18.9287 53.579 18.9287H57.0573C57.014 16.7205 56.0503 15.6136 54.1691 15.6136C52.7263 15.6082 51.1942 15.9709 49.5755 16.6934ZM50.8884 23.9459C50.8884 24.5142 51.0968 25.0121 51.5109 25.4396C51.9278 25.8672 52.4962 26.0783 53.219 26.0783C53.8984 26.0783 54.5751 25.9132 55.2545 25.5858C55.9339 25.2583 56.5457 24.8091 57.0925 24.2408V21.3858H53.514C52.7047 21.3858 52.0631 21.6321 51.5949 22.1246C51.1239 22.6171 50.8884 23.2233 50.8884 23.9459Z" fill="#092B47"/>
<path d="M74.7845 12.688H78.4929V28.6055H75.9972L75.3394 26.7031C74.4191 27.4473 73.4148 28.0372 72.3186 28.4756C71.225 28.914 70.1964 29.1305 69.2327 29.1305C65.7301 29.1305 63.9814 27.063 63.9814 22.928V12.688H67.6574V22.698C67.6574 24.9089 68.4775 26.013 70.1179 26.013C71.4524 26.013 73.0061 25.2797 74.7791 23.8129V12.688H74.7845Z" fill="#092B47"/>
<path d="M96.1226 12.6881V29.6881C96.1226 31.6798 95.4053 33.2548 93.9733 34.413C92.5387 35.5739 90.5762 36.153 88.0805 36.153C87.2928 36.153 86.2696 35.9988 85.0109 35.693C83.7522 35.3872 82.7615 34.9813 82.0415 34.4779L83.1567 31.8205C84.142 32.2805 84.9893 32.6188 85.7012 32.838C86.4131 33.0572 87.1737 33.1654 87.9831 33.1654C89.2959 33.1654 90.3624 32.8542 91.1826 32.2291C92.0027 31.6067 92.4142 30.7462 92.4142 29.6529V27.9453C91.8457 28.2944 91.2529 28.5623 90.6412 28.749C90.0294 28.9358 89.4475 29.0278 88.9007 29.0278C87.282 29.0278 85.8744 28.676 84.6834 27.9778C83.4897 27.2769 82.5721 26.2946 81.9251 25.0227C81.2782 23.7535 80.9561 22.2787 80.9561 20.5927C80.9561 18.9312 81.2782 17.4698 81.9251 16.2115C82.5693 14.9531 83.5005 13.9789 84.7159 13.2916C85.9313 12.6015 87.3469 12.2578 88.9656 12.2578C89.6234 12.2578 90.3543 12.4121 91.1663 12.7179C91.9757 13.0237 92.6984 13.4404 93.3318 13.9654L94.1195 12.6854H96.1226V12.6881ZM90.7711 25.5368C91.3179 25.3285 91.8647 24.9956 92.4115 24.5356V16.7257C91.8863 16.2656 91.3504 15.9327 90.8036 15.7244C90.2568 15.516 89.6424 15.4132 88.9656 15.4132C87.6528 15.4132 86.6188 15.8949 85.8636 16.8583C85.1084 17.8216 84.7321 19.0583 84.7321 20.5657C84.7321 22.1623 85.1111 23.4423 85.8636 24.4057C86.6188 25.3691 87.6528 25.8508 88.9656 25.8508C89.6234 25.8481 90.2243 25.7452 90.7711 25.5368Z" fill="#092B47"/>
<path d="M103.474 28.6056H99.7986V12.6881H102.262L102.917 14.5905C103.837 13.8463 104.841 13.2564 105.938 12.818C107.031 12.3796 108.06 12.1631 109.024 12.1631C110.883 12.1631 112.228 12.7151 113.062 13.8192C113.893 14.9233 114.31 16.4388 114.31 18.3656V28.6056H110.602V18.5956C110.602 16.3847 109.781 15.2806 108.138 15.2806C106.804 15.2806 105.25 16.0139 103.477 17.4807V28.6056H103.474Z" fill="#092B47"/>
<path d="M119.429 10.1282C118.817 10.1282 118.308 9.9144 117.902 9.48954C117.496 9.06197 117.296 8.54239 117.296 7.9308C117.296 7.34087 117.504 6.83211 117.918 6.40454C118.335 5.97697 118.839 5.76318 119.429 5.76318C120.04 5.76318 120.56 5.97697 120.988 6.40454C121.415 6.83211 121.627 7.34087 121.627 7.9308C121.627 8.54239 121.413 9.06197 120.988 9.48954C120.56 9.9144 120.04 10.1282 119.429 10.1282ZM117.623 28.6057V12.6882H121.332V28.6057H117.623Z" fill="#092B47"/>
<path d="M132.067 12.8209L133.182 15.6434H129.176V23.2233C129.176 24.0757 129.368 24.7603 129.75 25.2745C130.132 25.7887 130.708 26.0458 131.474 26.0458C131.978 26.0458 132.524 25.9159 133.115 25.6534L134.132 28.3784C133.805 28.5976 133.35 28.7898 132.771 28.9522C132.192 29.1172 131.661 29.1984 131.179 29.1984C129.406 29.1984 128.018 28.7384 127.011 27.821C126.004 26.9009 125.5 25.5776 125.5 23.8511V15.6434H123.302V12.8209H125.5V8.91589L129.176 8.19336V12.8209H132.067Z" fill="#092B47"/>
<path d="M138.073 10.1282C137.462 10.1282 136.953 9.9144 136.547 9.48954C136.141 9.06197 135.94 8.54239 135.94 7.9308C135.94 7.34087 136.149 6.83211 136.566 6.40454C136.983 5.97697 137.486 5.76318 138.076 5.76318C138.688 5.76318 139.208 5.97697 139.635 6.40454C140.063 6.83211 140.274 7.34087 140.274 7.9308C140.274 8.54239 140.06 9.06197 139.635 9.48954C139.205 9.9144 138.685 10.1282 138.073 10.1282ZM136.268 28.6057V12.6882H139.976V28.6057H136.268Z" fill="#092B47"/>
<path d="M147.756 28.6056L141.847 13.2807L145.425 12.0981L149.464 23.288L153.337 12.6881H157.179L151.039 28.6056H147.756Z" fill="#092B47"/>
<path d="M173 21.6156H161.97C162.297 24.4598 163.994 25.8832 167.059 25.8832C167.911 25.8832 168.672 25.7695 169.34 25.5395C170.009 25.3095 170.813 24.955 171.752 24.4733L172.868 27.1632C171.095 28.3891 169.135 29.0007 166.991 29.0007C164.103 29.0007 161.897 28.2511 160.375 26.7519C158.854 25.2527 158.094 23.2122 158.094 20.6306C158.094 18.969 158.405 17.5077 159.03 16.2493C159.655 14.991 160.551 14.0114 161.723 13.3132C162.893 12.6123 164.279 12.2632 165.876 12.2632C168.217 12.2632 169.99 13.0399 171.192 14.5932C172.397 16.1465 172.997 18.1274 172.997 20.5332V21.6156H173ZM162.037 19.153H169.457C169.259 17.9271 168.856 16.9989 168.241 16.363C167.63 15.7298 166.807 15.4104 165.781 15.4104C164.731 15.4104 163.883 15.7379 163.237 16.3955C162.59 17.0531 162.189 17.9704 162.037 19.153Z" fill="#092B47"/>
</svg>
